HIERARCHY
ROOT Hips
{
  OFFSET 0 0 0
  CHANNELS 6 Xposition Yposition Zposition Zrotation Yrotation Xrotation
  JOINT LeftThigh
  {
    OFFSET 8.409438 0 -5.917753
    CHANNELS 3 Zrotation Yrotation Xrotation
    JOINT LeftLeg
    {
      OFFSET 0 0 -42.358652
      CHANNELS 3 Zrotation Yrotation Xrotation
      JOINT LeftFoot
      {
        OFFSET 0 0 -39.357303
        CHANNELS 3 Zrotation Yrotation Xrotation
      }
    }
  }
  JOINT RightThigh
  {
    OFFSET -8.409438 0 -5.917753
    CHANNELS 3 Zrotation Yrotation Xrotation
    JOINT RightLeg
    {
      OFFSET 0 0 -42.358652
      CHANNELS 3 Zrotation Yrotation Xrotation
      JOINT RightFoot
      {
        OFFSET 0 0 -39.357303
        CHANNELS 3 Zrotation Yrotation Xrotation
      }
    }
  }
  JOINT SpineLow
  {
    OFFSET 0 0 4.719101
    CHANNELS 3 Zrotation Yrotation Xrotation
    JOINT SpineMid
    {
      OFFSET 0 0 12.899191
      CHANNELS 3 Zrotation Yrotation Xrotation
      JOINT Chest
      {
        OFFSET 0 0 12.899191
        CHANNELS 3 Zrotation Yrotation Xrotation
        JOINT LeftShoulder
        {
          OFFSET 7.550562 1.41573 9.438202
          CHANNELS 3 Zrotation Yrotation Xrotation
          JOINT LeftArm
          {
            OFFSET 9.155056 0 4.247191
            CHANNELS 3 Zrotation Yrotation Xrotation
            JOINT LeftForearm
            {
              OFFSET 0 0 25.771955
              CHANNELS 3 Zrotation Yrotation Xrotation
              JOINT LeftHand
              {
                OFFSET 0 0 25.197169
                CHANNELS 3 Zrotation Yrotation Xrotation
              }
            }
          }
        }
        JOINT RightShoulder
        {
          OFFSET -7.550562 1.41573 9.438202
          CHANNELS 3 Zrotation Yrotation Xrotation
          JOINT RightArm
          {
            OFFSET -9.155056 0 4.247191
            CHANNELS 3 Zrotation Yrotation Xrotation
            JOINT RightForearm
            {
              OFFSET 0 0 -25.771955
              CHANNELS 3 Zrotation Yrotation Xrotation
              JOINT RightHand
              {
                OFFSET 0 0 -25.197169
                CHANNELS 3 Zrotation Yrotation Xrotation
              }
            }
          }
        }
        JOINT Neck
        {
          OFFSET 0 0 15.101124
          CHANNELS 3 Zrotation Yrotation Xrotation
          JOINT Head
          {
            OFFSET 0 0 11.325843
            CHANNELS 3 Zrotation Yrotation Xrotation
            End Site
            {
              OFFSET 0 0 14.157303
            }
          }
        }
      }
    }
  }
}
MOTION
Frames: 13
Frame Time: 0.0
0.0  93.25843  0.0  -4.121124  -13.723777  -93.623412  22.093068  -19.473563  -5.055508  -10.957493  5.587811  24.700373  9.340308  2.851737  2.719361  -3.547377  -3.516226  -12.828594  -7.686238  17.266678  24.849606  10.277428  5.164979  0.378865  2.097496  -0.924501  0.144523  5.730339  -2.53737  0.314671  5.73034  -2.53737  0.314672  -18.620179  19.992798  13.199954  -139.015099  26.827745  -102.549419  -5.376835  6.944502  107.936  100.666808  18.680974  15.175943  -3.42456  -14.186685  24.646362  91.70693  56.195102  40.190236  -1.595783  -22.709326  -121.428909  55.22971  -4.38388  -12.880562  -5.409784  -0.783429  5.851143  -4.050215  -0.639497  4.381762  
0.0  93.25843  0.0  -3.487444  -18.300018  -93.48883  23.539066  -18.557791  -3.923556  -9.696514  5.096493  24.633394  10.135285  2.956605  2.884425  -2.219465  -3.442804  -13.87202  -6.06782  17.167289  25.082539  10.70252  5.157383  0.332818  2.5408  -0.902549  0.122095  6.943439  -2.476713  0.238632  6.943439  -2.476713  0.238632  -17.831322  19.374724  12.648025  -137.615693  27.854422  -102.890256  -5.661814  4.792715  109.618483  99.425596  20.696549  15.670656  -3.585515  -13.757831  25.336809  90.71769  54.981876  39.969526  -0.957664  -21.667312  -121.051052  55.609051  -4.343577  -12.080355  -4.56512  -0.623699  5.942845  -3.418125  -0.51226  4.452726  
0.0  93.25843  0.0  -2.850256  -22.955562  -93.515677  24.375599  -17.721115  -2.534318  -7.739724  4.568204  24.489289  10.908278  3.003488  3.031576  -0.907818  -3.285904  -14.804226  -4.429261  16.880048  25.181274  11.14015  5.04747  0.297205  2.999415  -0.880446  0.109074  8.197975  -2.415871  0.188579  8.197975  -2.415871  0.188579  -17.283557  18.472306  12.390517  -136.142556  28.639316  -103.14944  -6.085686  4.061607  111.0597  97.48341  22.384572  15.541368  -3.890079  -13.260115  26.327859  89.909229  53.844994  39.852145  -0.826856  -20.631787  -120.271176  55.438987  -4.544362  -12.226588  -3.731113  -0.46668  6.119697  -2.793979  -0.387437  4.587101  
0.0  93.25843  0.0  -2.226034  -27.805253  -93.577402  24.943342  -16.938139  -1.14389  -5.095163  3.982993  24.31655  11.626214  3.025967  3.215403  0.715001  -3.120691  -15.694204  -2.90541  16.415307  25.085724  11.676047  4.958173  0.338676  3.449964  -0.832541  0.099466  9.430149  -2.284515  0.15267  9.43015  -2.284515  0.15267  -16.65924  17.170096  12.19493  -134.414908  29.309731  -103.206844  -6.712981  5.219187  112.297349  96.551497  23.436595  16.046393  -4.030843  -13.01611  27.231428  89.471776  52.528536  40.107323  -0.704155  -19.869209  -119.30895  55.488065  -4.852659  -12.748413  -2.917367  -0.387534  6.248143  -2.184325  -0.320526  4.684367  
0.0  93.25843  0.0  -1.601391  -32.778257  -93.664558  25.409703  -16.130215  0.168506  -1.953559  3.286756  24.10296  12.185267  3.063196  3.364327  2.693614  -2.98183  -16.571263  -1.565016  15.826652  24.830946  11.744939  4.759254  0.390127  3.85312  -0.777813  0.091427  10.532537  -2.134415  0.125483  10.532536  -2.134415  0.125482  -15.687697  15.758129  11.906676  -132.354791  30.074005  -102.937023  -7.24636  7.241812  113.496766  96.994302  24.281612  17.591976  -3.853822  -13.039042  28.099249  89.67901  51.164204  41.140237  -0.819615  -19.411833  -118.174205  55.565082  -5.192585  -13.411753  -1.707085  -0.324952  6.492439  -1.277029  -0.261887  4.868453  
0.0  93.25843  0.0  -0.94475  -37.810808  -93.884862  25.977412  -15.293028  1.491204  1.377487  2.527636  23.733923  12.631673  3.100509  3.512188  4.939321  -2.875391  -17.305742  -0.37108  15.193316  24.420655  11.447165  4.523148  0.45493  4.210547  -0.711288  0.129525  11.508371  -1.959969  0.229273  11.508371  -1.959969  0.229273  -14.471736  14.075104  11.476892  -129.928567  30.807996  -102.206782  -7.5491  8.895682  114.952001  98.45338  25.294834  20.211616  -3.465507  -13.116953  28.712576  90.229339  49.766499  42.553427  -1.017919  -19.078712  -117.017085  55.606024  -5.676056  -14.0096  -0.260336  -0.270725  6.6372  -0.192339  -0.2059  4.977777  
0.0  93.25843  0.0  -0.253096  -42.690298  -94.181097  26.662882  -14.448514  2.782455  4.585942  1.83772  23.116339  13.01021  3.107624  3.649413  7.044497  -2.830433  -17.882862  0.307285  14.799626  23.723619  11.218173  4.299147  0.426885  4.566049  -0.658212  0.179387  12.478801  -1.825573  0.364432  12.478802  -1.825573  0.364431  -13.758259  12.391033  10.639239  -127.00879  31.842522  -101.163728  -7.778717  9.258055  116.767899  100.393394  26.250753  23.873715  -3.476253  -12.923522  29.188786  90.759826  48.314381  43.933048  -1.110529  -18.665857  -115.937313  55.515258  -6.189981  -14.592768  1.087475  -0.160341  6.714045  0.817485  -0.108324  5.035835  
0.0  93.25843  0.0  0.488611  -47.2398  -94.577612  27.381406  -13.598087  4.073531  7.37081  1.234089  22.265181  13.409058  3.142621  3.790439  8.711229  -2.873072  -18.318462  0.69324  14.686525  22.77796  11.14299  4.107882  0.368303  4.869407  -0.60471  0.249966  13.306309  -1.695399  0.558761  13.306309  -1.695399  0.558762  -13.324082  10.870225  9.437614  -123.622179  33.356409  -99.514296  -8.498118  7.964348  118.652789  101.997077  26.673062  28.258934  -3.694952  -12.73879  29.522045  91.29462  46.849077  45.495945  -1.412909  -18.235977  -114.864066  55.526904  -6.825168  -15.468592  2.421567  -0.057045  6.656927  1.817052  -0.016408  4.993014  
0.0  93.25843  0.0  1.180585  -51.272597  -94.979898  27.894698  -12.701406  5.249889  9.55797  0.651639  21.301799  13.717403  3.206246  3.858947  9.748284  -3.131834  -18.547072  1.208233  14.810914  21.589871  11.145278  3.862297  0.296615  5.100907  -0.504487  0.307924  13.938151  -1.43665  0.731405  13.93815  -1.43665  0.731405  -13.209718  9.144693  8.204049  -119.620067  35.148433  -97.194778  -9.724552  5.515901  120.348782  102.734909  26.722858  32.353316  -4.143265  -12.930506  29.769221  91.601594  45.333242  47.02673  -2.204505  -17.553062  -113.788696  55.694643  -7.801448  -16.694573  3.663612  -0.170523  6.473796  2.749879  -0.089097  4.856572  
0.0  93.25843  0.0  1.727106  -54.66568  -95.383216  27.989002  -11.775571  6.237024  11.037456  0.131448  20.320145  14.0145  3.411531  3.865423  10.358378  -3.476125  -18.454237  1.929743  14.876824  20.170378  11.331081  3.523056  0.285341  5.310192  -0.370449  0.388776  14.5097  -1.092033  0.975816  14.509699  -1.092033  0.975816  -13.825865  7.125331  6.909298  -114.960891  36.930465  -94.199999  -11.063934  2.846999  122.014386  102.836301  27.119793  35.224209  -5.190884  -13.292347  29.873401  91.458706  43.96851  48.257703  -3.05235  -17.04058  -112.82136  56.827352  -8.874406  -18.06819  4.551057  -0.451136  6.073351  3.418159  -0.293176  4.558648  
0.0  93.25843  0.0  1.956897  -57.31411  -95.568527  27.537736  -10.925202  6.86141  12.15674  -0.24202  19.450111  14.995278  3.279447  4.029224  10.686364  -3.681342  -17.981501  2.939195  14.457035  18.550346  11.529994  3.141238  0.343208  5.448781  -0.148591  0.421475  14.890843  -0.498395  1.112012  14.890843  -0.498395  1.112012  -14.700392  4.522768  6.292509  -109.869858  38.432676  -90.244399  -12.540837  0.477473  123.56234  102.825869  28.265195  36.666653  -6.571904  -14.261802  30.148131  90.568016  42.818219  48.998557  -3.514397  -15.848227  -112.498355  58.465719  -9.867211  -18.461217  5.27478  -1.078118  5.617301  3.966275  -0.760247  4.22253  
0.0  93.25843  0.0  1.737716  -59.093636  -95.361783  26.698094  -10.320582  7.056095  13.278477  -0.589287  18.763493  16.026382  3.061155  4.302766  10.925413  -3.694066  -17.368879  4.046144  13.525695  17.073564  11.453303  2.945738  0.385556  5.43991  -0.026833  0.478688  14.868281  -0.180201  1.29484  14.868279  -0.180201  1.294839  -15.505  2.536723  5.811516  -104.274783  39.736539  -85.379995  -13.911287  -1.045553  124.748564  103.567655  29.798194  36.860174  -7.606084  -14.762296  30.131055  88.66283  41.823087  49.22354  -4.818294  -12.965718  -112.252733  59.322545  -11.12547  -18.639002  6.031386  -1.351551  5.103368  4.534991  -0.963488  3.841132  
0.0  93.25843  0.0  1.143479  -60.003996  -94.786853  25.92292  -9.971173  6.888029  14.441978  -1.129608  18.298504  16.434267  2.758758  4.49814  11.336894  -3.771215  -16.705843  4.801864  12.702253  15.689243  11.019855  2.90563  0.412666  5.181555  -0.002206  0.534828  14.16243  -0.120208  1.453729  14.16243  -0.120208  1.453729  -15.368428  1.103882  5.607539  -98.531763  40.877599  -79.871356  -15.133685  -1.999329  125.516503  105.323589  31.352405  36.202803  -7.543504  -14.83566  29.759251  85.939904  40.691095  49.114294  -6.111289  -10.160264  -111.127667  61.003975  -11.449662  -19.204257  7.27575  -1.258419  4.667836  5.466583  -0.888451  3.51631  
